<?xml version="1.0" encoding="UTF-8"?>
<svg width="512" height="512" viewBox="0 0 512 512" xmlns="http://www.w3.org/2000/svg">
  <circle cx="256" cy="256" r="200" fill="transparent" stroke="#E6C378" stroke-width="20"/>
  
  <!-- 齿轮的齿 -->
  <g stroke="#E6C378" stroke-width="20" fill="transparent">
    <!-- 上方齿轮 -->
    <line x1="256" y1="56" x2="256" y2="16" />
    <line x1="205" y1="63" x2="185" y2="25" />
    <line x1="160" y1="85" x2="130" y2="55" />
    <line x1="120" y1="120" x2="85" y2="85" />
    <line x1="90" y1="160" x2="50" y2="140" />
    <line x1="70" y1="205" x2="30" y2="195" />
    <line x1="60" y1="256" x2="20" y2="256" />
    
    <!-- 下方齿轮 -->
    <line x1="70" y1="310" x2="30" y2="320" />
    <line x1="90" y1="350" x2="50" y2="370" />
    <line x1="125" y1="390" x2="90" y2="425" />
    <line x1="160" y1="420" x2="135" y2="460" />
    <line x1="205" y1="450" x2="190" y2="490" />
    <line x1="256" y1="456" x2="256" y2="496" />
    <line x1="310" y1="450" x2="325" y2="490" />
    <line x1="350" y1="420" x2="375" y2="460" />
    <line x1="390" y1="390" x2="425" y2="425" />
    <line x1="420" y1="350" x2="460" y2="370" />
    <line x1="450" y1="310" x2="490" y2="325" />
    <line x1="456" y1="256" x2="496" y2="256" />
    <line x1="450" y1="205" x2="490" y2="190" />
    <line x1="420" y1="160" x2="460" y2="140" />
    <line x1="390" y1="125" x2="425" y2="90" />
    <line x1="350" y1="90" x2="375" y2="50" />
    <line x1="310" y1="63" x2="330" y2="25" />
  </g>
  
  <!-- "LogocraftAI" 文字 -->
  <path d="M120 280 Q122 270, 128 265 Q134 260, 140 260 Q148 260, 155 265 Q162 270, 165 280 Q170 295, 170 310 Q170 330, 160 345 Q150 360, 135 360 Q125 360, 120 350 L120 355 Q115 360, 105 360 Q95 360, 90 350 L90 260 Q95 255, 105 255 Q115 255, 120 260 L120 280 Z M145 340 Q150 328, 150 310 Q150 298, 147 290 Q144 285, 140 285 Q136 285, 135 290 Q133 298, 132 310 Q130 326, 135 335 Q138 340, 145 340 Z" fill="#E6C378" />
  
  <path d="M175 350 Q170 345, 170 335 Q170 325, 175 320 L210 270 L180 270 Q175 265, 175 255 Q175 245, 180 240 L220 240 Q230 240, 235 245 Q240 250, 240 260 Q240 265, 235 270 L202 320 L230 320 Q235 325, 235 335 Q235 345, 230 350 L180 350 Q177 350, 175 350 Z" fill="#E6C378" />
  
  <path d="M247 290 Q247 310, 254 330 Q258 340, 265 340 Q270 340, 273 335 Q276 330, 278 320 Q282 295, 282 265 Q282 260, 281 255 Q280 253, 278 253 Q276 253, 275 255 Q274 257, 274 260 Q274 265, 274 270 Q270 275, 260 275 Q250 275, 246 270 Q245 265, 245 255 Q245 242, 250 235 Q265 220, 285 220 Q305 220, 315 235 Q325 250, 325 270 Q325 300, 315 325 Q305 350, 285 350 Q265 350, 255 335 Q245 320, 245 290 Q245 282, 247 290 Z" fill="#E6C378" />
  
  <path d="M332 350 Q327 345, 327 335 Q327 325, 332 320 L367 270 L337 270 Q332 265, 332 255 Q332 245, 337 240 L377 240 Q387 240, 392 245 Q397 250, 397 260 Q397 265, 392 270 L359 320 L387 320 Q392 325, 392 335 Q392 345, 387 350 L337 350 Q334 350, 332 350 Z" fill="#E6C378" />
  
  <path d="M426 310 Q421 320, 412 330 Q403 340, 392 345 Q385 347, 377 347 Q369 347, 365 342 Q360 337, 360 327 Q360 317, 365 312 Q370 310, 375 310 Q380 307, 385 302 Q388 297, 388 292 Q388 290, 387 287 Q386 283, 385 283 Q384 283, 382 285 Q379 288, 375 295 Q370 302, 365 307 Q360 310, 355 310 Q345 310, 340 305 Q335 295, 335 280 Q335 260, 345 245 Q355 230, 370 225 Q380 220, 385 220 Q390 220, 393 222 Q396 225, 398 230 Q400 240, 400 245 Q410 240, 418 230 Q426 220, 430 205 L433 205 Q436 208, 439 215 Q441 225, 441 240 Q440 268, 426 310 Z M400 310 Q405 300, 409 285 Q413 271, 415 255 Q415 250, 415 245 Q413 243, 412 243 Q411 243, 409 245 Q405 250, 400 260 Q395 270, 390 283 Q388 288, 388 292 Q388 297, 390 300 Q393 305, 395 305 Q396 305, 396 305 Q396 305, 398 304 Q398 304, 400 310 Z" fill="#E6C378" />
  
  <path d="M455 220 Q447 225, 440 230 Q434 235, 430 240 L430 335 Q430 342, 425 347 Q420 352, 410 352 Q400 352, 395 347 Q390 342, 390 335 L390 235 Q390 230, 395 225 Q398 222, 415 220 L455 220 Z" fill="#E6C378" />
  
  <path d="M100 380 L400 380" stroke="#E6C378" stroke-width="2" />
</svg> 